<?xml version="1.0" encoding="utf-8"?>
<!-- Generator: Adobe Illustrator 23.0.6, SVG Export Plug-In . SVG Version: 6.00 Build 0)  -->
<svg version="1.1" id="Layer_1" xmlns="http://www.w3.org/2000/svg" xmlns:xlink="http://www.w3.org/1999/xlink" x="0px" y="0px"
	 viewBox="0 0 1024 1024" enable-background="new 0 0 1024 1024" xml:space="preserve">
<path fill-rule="evenodd" clip-rule="evenodd" fill="#181616" d="M512,4.6C230.4,4.6,2,232.9,2,514.6
	c0,225.3,146.1,416.5,348.8,483.9c25.5,4.7,34.8-11.1,34.8-24.6c0-12.1-0.4-44.2-0.7-86.7C243,918,213.1,818.8,213.1,818.8
	c-23.2-58.9-56.6-74.6-56.6-74.6c-46.3-31.6,3.5-31,3.5-31c51.2,3.6,78.1,52.6,78.1,52.6c45.5,77.9,119.4,55.4,148.4,42.4
	c4.6-33,17.8-55.4,32.4-68.2c-113.2-12.9-232.3-56.6-232.3-252.1c0-55.7,19.9-101.2,52.5-136.9c-5.2-12.9-22.7-64.8,5-135
	c0,0,42.8-13.7,140.2,52.3c40.7-11.3,84.3-17,127.7-17.2c43.3,0.2,86.9,5.9,127.7,17.2c97.4-66,140.1-52.3,140.1-52.3
	c27.8,70.2,10.3,122.1,5.1,135c32.7,35.7,52.4,81.2,52.4,136.9c0,195.9-119.2,239-232.9,251.7c18.3,15.7,34.6,46.9,34.6,94.4
	c0,68.2-0.6,123.2-0.6,139.9c0,13.6,9.2,29.5,35.1,24.5C876,930.9,1022,739.9,1022,514.6C1022,232.9,793.6,4.6,512,4.6z"/>
</svg>
